# xmcd
#
# Track frame offsets: 
#        150
#        18965
#        44802
#        69932
#        95350
#        111710
#        125990
#        144200
#        160775
#        177037
#        205242
#        222665
#        243180
#
# Disc length: 3894 seconds
#
# Revision: 1
# Processed by: cddbd v1.5.2PL0 Copyright (c) Steve Scherf et al.
# Submitted via: ExactAudioCopy v1.0b3
#
DISCID=bf0f340d
DTITLE=Diverse - Elipson 2
DYEAR=1900
DGENRE=Jazz
TTITLE0=01-Slam Stewart - Slam Bam.flac
TTITLE1=02-Al Casey - Rosetta.flac
TTITLE2=03-Major Holley - Angel Eyes.flac
TTITLE3=04-Eddie Davis - Don't Worry About Me.flac
TTITLE4=05-Stephane Grappelli - It's Only A Papermoon.flac
TTITLE5=06-Helen Humes - You Are Driving Me Crazy.flac
TTITLE6=07-Cat Anderson - Aunt Hagar's Blues.flac
TTITLE7=08-J.C. Heard - J.C. Speaks.flac
TTITLE8=09-Carrie Smith - It Won't Be Long.flac
TTITLE9=10-Gerry Wiggins - Lover.flac
TTITLE10=11-Earl Hines Harry Edison - Just You, Just Me.flac
TTITLE11=12-Budd Johnson - Mr Bechet.flac
TTITLE12=13-Buddy Tate - Mack The Knife.flac
EXTD=
EXTT0=
EXTT1=
EXTT2=
EXTT3=
EXTT4=
EXTT5=
EXTT6=
EXTT7=
EXTT8=
EXTT9=
EXTT10=
EXTT11=
EXTT12=
PLAYORDER=
